PathFileType	4	(X/Y/Z)	C:/Users/Carlo/Dropbox/Carlos/SARAH/CongressoMarcha2025/WorkshopOpenSim/C3D/Caso02/Static.c3d.trc
DataRate	CameraRate	NumFrames	NumMarkers	Units	OrigDataRate	OrigDataStartFrame	OrigNumFrames
100.000000	100.000000	2	141	mm	100.000000	50	100
Frame#	Time	LFHD			RFHD			LBHD			RBHD			C7			T10			CLAV			STRN			RBAK			LSHO			LUPA			LELB			LFRM			LWRA			LWRB			LFIN			RSHO			RUPA			RELB			RFRM			RWRA			RWRB			RFIN			LASI			RASI			LPSI			RPSI			LTHI			LKNE			LTIB			LANK			LHEE			LTOE			RTHI			RKNE			RTIB			RANK			RHEE			RTOE			PELO			PELA			PELL			PELP			LFEO			LFEA			LFEL			LFEP			LTIO			LTIA			LTIL			LTIP			LFOO			LFOA			LFOL			LFOP			LTOO			LTOA			LTOL			LTOP			RFEO			RFEA			RFEL			RFEP			RTIO			RTIA			RTIL			RTIP			RFOO			RFOA			RFOL			RFOP			RTOO			RTOA			RTOL			RTOP			HEDO			HEDA			HEDL			HEDP			LCLO			LCLA			LCLL			LCLP			RCLO			RCLA			RCLL			RCLP			TRXO			TRXA			TRXL			TRXP			LHUO			LHUA			LHUL			LHUP			LRAO			LRAA			LRAL			LRAP			LHNO			LHNA			LHNL			LHNP			RHUO			RHUA			RHUL			RHUP			RRAO			RRAA			RRAL			RRAP			RHNO			RHNA			RHNL			RHNP			LHipAngles			LKneeAngles			LAbsAnkleAngle			LAnkleAngles			RHipAngles			RKneeAngles			RAnkleAngles			RAbsAnkleAngle			LPelvisAngles			RPelvisAngles			LFootProgressAngles			RFootProgressAngles			RNeckAngles			LNeckAngles			RSpineAngles			LSpineAngles			LShoulderAngles			LElbowAngles			LWristAngles			RShoulderAngles			RElbowAngles			RWristAngles			RThoraxAngles			LThoraxAngles			RHeadAngles			LHeadAngles			
		X1	Y1	Z1	X2	Y2	Z2	X3	Y3	Z3	X4	Y4	Z4	X5	Y5	Z5	X6	Y6	Z6	X7	Y7	Z7	X8	Y8	Z8	X9	Y9	Z9	X10	Y10	Z10	X11	Y11	Z11	X12	Y12	Z12	X13	Y13	Z13	X14	Y14	Z14	X15	Y15	Z15	X16	Y16	Z16	X17	Y17	Z17	X18	Y18	Z18	X19	Y19	Z19	X20	Y20	Z20	X21	Y21	Z21	X22	Y22	Z22	X23	Y23	Z23	X24	Y24	Z24	X25	Y25	Z25	X26	Y26	Z26	X27	Y27	Z27	X28	Y28	Z28	X29	Y29	Z29	X30	Y30	Z30	X31	Y31	Z31	X32	Y32	Z32	X33	Y33	Z33	X34	Y34	Z34	X35	Y35	Z35	X36	Y36	Z36	X37	Y37	Z37	X38	Y38	Z38	X39	Y39	Z39	X40	Y40	Z40	X41	Y41	Z41	X42	Y42	Z42	X43	Y43	Z43	X44	Y44	Z44	X45	Y45	Z45	X46	Y46	Z46	X47	Y47	Z47	X48	Y48	Z48	X49	Y49	Z49	X50	Y50	Z50	X51	Y51	Z51	X52	Y52	Z52	X53	Y53	Z53	X54	Y54	Z54	X55	Y55	Z55	X56	Y56	Z56	X57	Y57	Z57	X58	Y58	Z58	X59	Y59	Z59	X60	Y60	Z60	X61	Y61	Z61	X62	Y62	Z62	X63	Y63	Z63	X64	Y64	Z64	X65	Y65	Z65	X66	Y66	Z66	X67	Y67	Z67	X68	Y68	Z68	X69	Y69	Z69	X70	Y70	Z70	X71	Y71	Z71	X72	Y72	Z72	X73	Y73	Z73	X74	Y74	Z74	X75	Y75	Z75	X76	Y76	Z76	X77	Y77	Z77	X78	Y78	Z78	X79	Y79	Z79	X80	Y80	Z80	X81	Y81	Z81	X82	Y82	Z82	X83	Y83	Z83	X84	Y84	Z84	X85	Y85	Z85	X86	Y86	Z86	X87	Y87	Z87	X88	Y88	Z88	X89	Y89	Z89	X90	Y90	Z90	X91	Y91	Z91	X92	Y92	Z92	X93	Y93	Z93	X94	Y94	Z94	X95	Y95	Z95	X96	Y96	Z96	X97	Y97	Z97	X98	Y98	Z98	X99	Y99	Z99	X100	Y100	Z100	X101	Y101	Z101	X102	Y102	Z102	X103	Y103	Z103	X104	Y104	Z104	X105	Y105	Z105	X106	Y106	Z106	X107	Y107	Z107	X108	Y108	Z108	X109	Y109	Z109	X110	Y110	Z110	X111	Y111	Z111	X112	Y112	Z112	X113	Y113	Z113	X114	Y114	Z114	X115	Y115	Z115	X116	Y116	Z116	X117	Y117	Z117	X118	Y118	Z118	X119	Y119	Z119	X120	Y120	Z120	X121	Y121	Z121	X122	Y122	Z122	X123	Y123	Z123	X124	Y124	Z124	X125	Y125	Z125	X126	Y126	Z126	X127	Y127	Z127	X128	Y128	Z128	X129	Y129	Z129	X130	Y130	Z130	X131	Y131	Z131	X132	Y132	Z132	X133	Y133	Z133	X134	Y134	Z134	X135	Y135	Z135	X136	Y136	Z136	X137	Y137	Z137	X138	Y138	Z138	X139	Y139	Z139	X140	Y140	Z140	X141	Y141	Z141	

51	0.5	-354.7742919921876	1741.684570312501	391.4514465332034	-480.0682373046877	1731.476562500001	369.6957397460939	-328.4478149414064	1698.523925781251	243.0293731689454	-469.8439636230471	1697.848876953126	231.845184326172	-403.9532165527346	1519.43603515625	211.3779754638673	-404.523620605469	1257.013061523438	163.2705383300782	-411.236755371094	1468.166137695313	355.7429504394532	-409.7102661132815	1288.747436523438	406.0484924316409	-454.2845764160159	1351.298095703125	140.146957397461	-225.9052276611329	1503.0361328125	259.9292602539064	-94.6371994018555	1457.906005859375	272.1205139160157	57.40662002563479	1406.527099609375	296.7135314941407	35.48046112060548	1413.395751953125	428.1441345214846	-75.41143035888675	1398.513671875	524.195983886719	-6.190798282623295	1395.1865234375	558.0422973632815	-59.19458389282229	1422.94873046875	619.0108642578127	-590.157897949219	1505.557006835938	247.5880889892579	-759.9544067382815	1438.01171875	227.9449005126954	-867.3066406250005	1401.436401367188	243.6406707763673	-836.8103637695317	1442.9765625	379.2268981933595	-784.527221679688	1440.705810546875	493.7589111328127	-859.8579711914067	1432.28125	504.2715148925784	-814.726440429688	1468.150024414063	575.789733886719	-301.4614257812501	1026.516967773438	357.6875305175782	-518.651062011719	1030.968017578125	358.8752441406251	-346.4375305175782	1035.201416015625	168.2977752685547	-484.3401184082034	1032.158447265625	167.6639099121094	-213.2108306884767	757.7966918945315	316.8721008300782	-237.0907135009767	523.359802246094	287.3844604492189	-202.3881683349611	317.5355834960939	241.8105773925782	-208.8804168701173	79.72697448730472	220.6133575439454	-251.0064086914064	38.16494750976564	169.1249694824219	-230.8137512207032	44.58258438110353	365.8455200195314	-590.4485473632815	668.6170043945315	311.2470703125001	-564.3699340820315	513.4255981445315	294.5742797851564	-593.4095458984377	267.7539062500001	246.3051147460939	-586.952575683594	83.28443908691409	220.5126037597657	-533.2795410156252	46.4142532348633	165.6324310302735	-570.679138183594	42.9045867919922	363.496307373047	-412.360778808594	930.0664062500005	306.6626281738282	-411.7180480957034	926.7570190429692	436.5982666015627	-282.4106445312501	927.403198242188	305.9519958496095	-409.6803894042971	1059.976318359375	309.9580993652345	-295.7689514160157	517.0201416015627	274.0830993652345	-382.9351501464845	475.0144348144534	678.6323852539065	107.6653747558594	560.6076660156252	365.5349121093751	-347.3960571289064	928.551635742188	305.6899414062501	-253.2014617919923	74.81263732910159	226.6546173095704	-191.7473144531251	35.77817916870119	645.7543945312502	165.7564544677735	121.2669982910157	169.5479888916016	-293.7300109863282	495.8389892578127	271.8113708496095	-225.6867065429689	68.23632812500003	360.362030029297	-247.2524719238282	257.8486633300782	356.3899536132814	-37.03584289550783	89.27271270751956	340.3114318847657	-245.1667785644532	62.04518127441409	170.5835266113282	-219.1933441162111	70.30004882812503	423.6214904785159	-226.3819274902345	133.5041503906251	422.2974853515627	-156.3097229003907	77.31217956542972	416.9379577636721	-225.6867065429689	68.23635864257815	360.3619995117189	-505.2019348144534	510.2439575195315	282.3565063476564	-421.4434204101565	479.8921813964846	695.8833007812502	-91.5009460449219	487.9980773925784	196.929901123047	-477.3255615234377	931.5810546875005	307.6352844238282	-542.1245727539065	79.37937927246097	220.9586486816407	-551.2529907226565	21.56091308593751	632.1942138671877	-128.3314208984376	43.33298873901369	225.0758361816407	-507.0109558105471	489.1338500976565	279.3483276367189	-581.236755371094	65.52893066406253	353.8239135742189	-564.4406738281252	259.0930480957032	360.4320678710939	-390.9541625976565	47.8004837036133	389.476013183594	-545.1360473632815	68.91672515869143	162.8314971923829	-593.2703857421877	64.39966583251956	417.4880371093752	-587.6716918945315	128.9210662841797	419.6907653808596	-529.8428344726565	58.49019241333011	429.3720703125002	-581.2368164062502	65.52893829345706	353.8239135742189	-393.5468750000002	1621.602661132813	215.2151031494142	-421.3761291503909	1680.068359375001	433.1792907714846	-167.883773803711	1630.427246093751	241.6602783203126	-395.2062683105471	1841.158935546876	156.1105346679688	-229.6581420898439	1445.645629882813	267.4294433593751	-146.2877655029297	1463.835327148438	448.3308410644534	-216.716033935547	1643.560668945313	241.5645446777345	-411.0104980468752	1468.131713867188	348.7466735839845	-587.717468261719	1448.1201171875	255.2711334228517	-682.9366455078127	1467.5947265625	431.1050720214846	-579.2639160156252	1249.163330078125	281.8845520019532	-411.0104980468752	1468.131958007813	348.7466430664064	-411.0104980468752	1468.131958007813	348.7467041015626	-417.4898986816409	1469.114624023438	549.101257324219	-611.367126464844	1467.666137695313	342.2695312500001	-410.5767211914065	1267.673095703125	349.7439270019532	45.60226821899415	1364.902465820313	292.2082519531251	69.53910827636722	1358.473388671875	5.350341796875002	-35.39451217651369	1088.603881835938	291.6419067382814	-229.6581115722657	1445.645629882813	267.4295349121095	-41.45839691162111	1389.91259765625	541.7814941406252	181.2253723144532	1324.460205078125	626.021179199219	-110.9190216064454	1152.966674804688	541.2956542968752	39.50801086425783	1366.653198242188	309.6783752441407	-81.44419097900393	1406.350708007813	700.2500610351565	-67.10243225097659	1569.442260742188	686.9512329101565	77.22795867919925	1395.751953125	741.3865966796877	-41.4584197998047	1389.91259765625	541.781433105469	-853.879760742188	1360.34619140625	248.4947814941407	-828.5649414062505	1304.704956054688	-25.10293579101564	-938.1965332031255	1620.715820312501	187.7422180175782	-587.7175292968752	1448.119873046875	255.2711791992189	-821.1828613281255	1429.831787109375	500.9124145507815	-1053.209838867188	1365.817993164063	548.5897216796877	-894.9815063476567	1657.721435546876	447.7385253906252	-851.5910034179692	1365.210327148438	266.1640014648439	-801.728637695313	1457.514892578125	658.461120605469	-822.875854492188	1615.276367187501	633.3518676757815	-643.1704101562502	1475.159301757813	635.781921386719	-821.1828002929692	1429.831787109375	500.9124755859377	-8.324205398559574	12.41674900054932	-2.905587911605836	1.985565423965455	-20.32384109497071	1.333533048629761	0	0	7.349810123443607	-3.778046939965226e-13	1.685845375061036	7.353017330169681	-2.587776899337769	11.20284461975098	-1.990857958793641	-0.1379828155040742	-12.36302185058594	4.782595157623293	-3.078408296504355e-13	-10.00534629821778	6.133119583129886	0	0	6.039494514465336	-1.181611061096192	-0.2833848297595979	1.453128457069397	1.181611061096192	0.2833848297595979	1.453128457069397	-6.521505355834964	-5.857585430145265	-91.8684997558594	-5.044358730316164	-10.70194244384766	-88.98381042480472	2.06787919998169	4.842055797576906	-14.64241409301759	-2.06787919998169	-4.842055797576906	-14.64241409301759	1.361026406288147	2.131547212600709	-1.695152521133424	-1.361026406288147	-2.131547212600709	-1.695152521133424	73.54084014892581	-0.1389648020267487	3.080466508865358	-5.466578588011845e-16	9.892829827898301e-13	105.0109405517579	1.687675118446351	102.1461410522462	-4.767172336578371	71.88542938232425	-11.67263889312744	0.2861143946647645	-1.590277359294756e-15	4.224571647365451e-12	102.8993759155274	-5.084922790527346	99.46202850341803	-1.783147931098939	-0.123978540301323	-1.852254033088685	-0.2850367128849031	0.123978540301323	1.852254033088685	-0.2850367128849031	-0.4181463420391085	-7.030340194702152	15.0668420791626	0.4181463420391085	7.030340194702152	15.0668420791626	
52	0.51	-354.5478515625001	1741.779907226563	391.9221191406252	-479.9573364257815	1731.486328125001	369.8123779296876	-328.3717041015626	1698.519409179688	243.1021575927736	-469.8093872070315	1697.887695312501	231.9842224121095	-403.9104919433596	1519.41357421875	211.473114013672	-404.4627685546877	1256.993286132813	163.3796539306641	-411.1533508300784	1468.142578125	355.7905578613282	-409.611267089844	1288.710205078125	406.0830383300784	-454.2039794921877	1351.274658203125	140.2405090332032	-225.8309783935548	1503.009033203125	259.9525146484376	-94.59785461425784	1457.852416992188	272.1113281250001	57.47585678100589	1406.44873046875	296.5931091308595	35.63454437255861	1413.349243164063	427.9814758300784	-75.21849060058597	1398.531982421875	524.125427246094	-6.033600807189945	1395.179321289063	557.940368652344	-58.99964904785159	1422.9814453125	618.9277954101565	-590.1089477539065	1505.517944335938	247.6429901123048	-759.872741699219	1437.894775390625	227.9328765869142	-867.2402954101567	1401.27783203125	243.5940093994142	-836.7639770507817	1442.86279296875	379.1697692871095	-784.5032348632817	1440.658813476563	493.7217712402346	-859.8577270507817	1432.2060546875	504.2187500000002	-814.7465209960942	1468.112426757813	575.753112792969	-301.4237060546876	1026.457763671875	357.761688232422	-518.6458129882815	1030.967651367188	358.9537353515626	-346.3890686035157	1035.186401367188	168.4412231445313	-484.3126525878909	1032.177612304688	167.7659149169922	-213.1887969970704	757.7593994140627	316.9883728027345	-237.0951232910157	523.3236083984377	287.4228820800782	-202.3528900146486	317.4898071289064	241.8264923095704	-208.8917846679689	79.69364929199222	220.6080169677736	-250.9850921630861	38.14277267456056	169.1565856933594	-230.8156738281251	44.54602432250978	365.8544006347657	-590.4629516601565	668.6428222656252	311.2082824707032	-564.366394042969	513.4611816406252	294.463592529297	-593.4257812500002	267.7584533691407	246.2098693847657	-586.974548339844	83.26963806152347	220.4972381591798	-533.2908935546877	46.39842987060548	165.6332244873047	-570.6741943359377	42.88277053833009	363.4863281250001	-412.366638183594	930.0458984375005	306.7224121093751	-411.7227478027346	926.7145385742192	436.6575012207034	-282.417205810547	927.3479614257817	306.0092773437501	-409.6513366699221	1059.95458984375	310.0396423339845	-295.7648315429689	516.988464355469	274.0819702148439	-383.194793701172	474.8933715820315	678.5648193359377	107.6108703613282	560.5452270507815	365.805633544922	-347.4022521972657	928.5139160156255	305.7484436035157	-253.2160949707032	74.78276062011722	226.6282501220704	-191.9596862792969	35.70010375976564	645.7514648437502	165.7715148925782	121.2043914794922	169.7204132080079	-293.7268676757814	495.807312011719	271.8089904785157	-225.7164306640626	68.19586944580081	360.3382568359376	-247.2630462646486	257.8105773925782	356.3749389648439	-37.06140136718751	89.21479034423831	340.309295654297	-245.1766052246095	62.01774215698245	170.5572662353516	-219.229705810547	70.25523376464847	423.598571777344	-226.4119262695314	133.4601287841797	422.2774963378909	-156.3446960449219	77.2615661621094	416.9222717285159	-225.7164154052736	68.19588470458987	360.3382873535157	-505.1991882324221	510.2859191894534	282.2401123046876	-421.4170532226565	479.7599792480471	695.7136230468752	-91.5380554199219	488.0862121582034	196.7809906005861	-477.3309020996096	931.5778808593755	307.6963195800782	-542.147644042969	79.35723876953128	220.9818725585939	-551.6260986328127	21.70240020751954	632.278747558594	-128.3185119628907	43.23904037475587	225.4557037353517	-507.0093688964846	489.1748046875002	279.2391357421876	-581.2520141601565	65.50445556640628	353.8491516113282	-564.429870605469	259.0659179687501	360.467010498047	-390.9692382812502	47.7488250732422	389.4865722656252	-545.1645507812502	68.89826202392581	162.8543548583985	-593.281188964844	64.37318420410159	417.514099121094	-587.673767089844	128.8937072753907	419.7200622558596	-529.8535766601565	58.45459365844729	429.393249511719	-581.2520141601565	65.50445556640628	353.8491210937501	-393.5583190917971	1621.665405273438	215.4757537841798	-421.1825866699221	1680.116333007813	433.469909667969	-167.8698425292969	1630.408447265626	241.7307739257814	-395.1912841796877	1841.228881835938	156.3971252441407	-229.5843200683595	1445.61865234375	267.4523315429689	-146.1891784667969	1463.803955078125	448.3460083007815	-216.6404266357423	1643.536621093751	241.5882568359376	-410.9284362792971	1468.1083984375	348.7942199707032	-587.6636962890627	1448.081176757813	255.3261871337892	-682.877136230469	1467.552490234375	431.1897277832034	-579.1925048828127	1249.1025390625	281.9430541992189	-410.928405761719	1468.1083984375	348.7942199707032	-410.9284362792971	1468.108276367188	348.7942810058595	-417.3703308105471	1469.091064453125	549.1631469726565	-611.2991943359377	1467.627319335938	342.3546752929689	-410.4793395996096	1267.636474609375	349.7919921875001	45.6601905822754	1364.825561523438	292.1040649414064	69.44386291503909	1358.325439453125	5.247253417968752	-35.39259719848634	1088.555786132813	291.6441040039064	-229.5843200683595	1445.618530273438	267.4524230957032	-41.28657913208009	1389.918701171875	541.6965332031252	181.4090118408204	1324.443481445313	625.8562011718752	-110.7951812744141	1152.997680664063	541.3020019531252	39.57389450073244	1366.582153320313	309.5755004882814	-81.24992370605472	1406.413452148438	700.1805419921877	-66.82719421386722	1569.509643554688	686.8425903320315	77.43592834472659	1395.743896484375	741.3052978515627	-41.28655242919923	1389.918701171875	541.6965942382815	-853.7987670898442	1360.194458007813	248.4647521972657	-828.3516235351567	1304.49560546875	-25.12091064453126	-938.2002563476567	1620.526123046876	187.6137695312501	-587.6638183593752	1448.081176757813	255.3261718750001	-821.1687011718755	1429.771484375	500.8696899414065	-1053.1845703125	1365.690185546875	548.5283813476565	-895.039428710938	1657.621704101563	447.611022949219	-851.5146484375005	1365.064819335938	266.1330566406251	-801.7668457031255	1457.504150390625	658.4439697265627	-822.9692382812505	1615.278442382813	633.2869873046877	-643.1818847656252	1475.205322265625	635.8023681640627	-821.1686401367192	1429.771728515625	500.8696899414065	-8.34105205535889	12.45400714874268	-2.904247760772706	1.989138484001161	-20.33494758605958	1.326497673988343	0	0	7.350057125091556	2.737675808706792e-13	1.665366888046266	7.353171825408939	-2.571508646011353	11.20740032196045	-2.005550861358643	-0.149629220366478	-12.41920852661134	4.740506649017336	5.570900118707751e-14	-9.951792716979984	6.110964775085453	0	0	6.018666744232181	-1.19701886177063	-0.2838889658451081	1.462743043899537	1.19701886177063	0.2838889658451081	1.462743043899537	-6.515614032745365	-5.851575851440431	-91.86453247070315	-5.052149295806887	-10.69795036315918	-88.98201751708987	2.043183326721192	4.804405689239504	-14.63863182067872	-2.043183326721192	-4.804405689239504	-14.63863182067872	1.380783200263977	2.121076583862306	-1.704500079154969	-1.380783200263977	-2.121076583862306	-1.704500079154969	73.52577972412112	-0.1574988812208176	3.065732002258303	-7.454425154781393e-16	-1.772451109494089e-12	105.0172500610352	1.685022234916688	102.1286621093751	-4.751416206359865	71.86640167236331	-11.69555091857911	0.2581554651260377	0	2.431534140701076e-12	102.913429260254	-5.087040901184084	99.4621200561524	-1.790976405143739	-0.1283481568098069	-1.841426014900208	-0.2851483523845674	0.1283481568098069	1.841426014900208	-0.2851483523845674	-0.4114827215671542	-6.978288650512699	15.06006145477296	0.4114827215671542	6.978288650512699	15.06006145477296	
